STARTFONT 2.1
COMMENT
COMMENT Converted from OpenType font "HIGHSPEED.TTF" by "otf2bdf 3.0".
COMMENT
FONT -FreeType-High speed-Medium-R-Normal--64-640-72-72-P-345-ISO10646-1
SIZE 64 72 72
FONTBOUNDINGBOX 58 78 0 -13
STARTPROPERTIES 19
FOUNDRY "FreeType"
FAMILY_NAME "High speed"
WEIGHT_NAME "Medium"
SLANT "R"
SETWIDTH_NAME "Normal"
ADD_STYLE_NAME ""
PIXEL_SIZE 64
POINT_SIZE 640
RESOLUTION_X 72
RESOLUTION_Y 72
SPACING "P"
AVERAGE_WIDTH 345
CHARSET_REGISTRY "ISO10646"
CHARSET_ENCODING "1"
FONT_ASCENT 64
FONT_DESCENT 12
COPYRIGHT "(c) Jakob Fischer at www.pizzadude.dk - DO NOT DISTRIBUTE WITHOUT AUTHOR'S PERMISSION!"
_OTF_FONTFILE "HIGHSPEED.TTF"
_OTF_PSNAME "Highspeed"
ENDPROPERTIES
CHARS 94
STARTCHAR 0020
ENCODING 32
SWIDTH 500 0
DWIDTH 32 0
BBX 0 0 0 0
BITMAP
ENDCHAR
STARTCHAR 0021
ENCODING 33
SWIDTH 328 0
DWIDTH 21 0
BBX 14 64 0 -13
BITMAP
E31C
E31C
0000
0000
0000
E31C
E31C
E31C
0000
0000
0000
E31C
E31C
E31C
0000
0000
E31C
E31C
E31C
0000
0000
0000
E31C
E31C
E31C
0000
0000
0000
E31C
E31C
0000
0000
0000
E31C
E31C
E31C
0000
0000
0000
E31C
E31C
0000
0000
0000
E31C
E31C
E31C
0000
0000
0000
0000
0000
0000
0000
0000
E31C
E31C
E31C
0000
0000
0000
E31C
E31C
E31C
ENDCHAR
STARTCHAR 0022
ENCODING 34
SWIDTH 531 0
DWIDTH 34 0
BBX 25 14 0 37
BITMAP
E3006380
E3006380
00000000
00000000
00000000
E3006380
E3006380
E3006380
00000000
00000000
00000000
E0006000
E0006000
E0006000
ENDCHAR
STARTCHAR 0023
ENCODING 35
SWIDTH 656 0
DWIDTH 42 0
BBX 36 53 0 -7
BITMAP
031C038E00
031C038E00
031C038E00
0000000000
0000000000
0000000000
031C038E00
031C038E00
031C038E00
0000000000
0000000000
E31C638E70
E31C638E70
E31C638E70
0000000000
0000000000
0000000000
E31C638E70
E31C638E70
E31C638E70
0000000000
0000000000
0000000000
031C038E00
031C038E00
0000000000
0000000000
0000000000
031C038E00
031C038E00
031C038E00
0000000000
0000000000
0000000000
E31C638E70
E31C638E70
0000000000
0000000000
0000000000
E31C638E70
E31C638E70
E31C638E70
0000000000
0000000000
0000000000
031C038E00
031C038E00
031C038E00
0000000000
0000000000
031C038E00
031C038E00
031C038E00
ENDCHAR
STARTCHAR 0024
ENCODING 36
SWIDTH 656 0
DWIDTH 42 0
BBX 36 64 0 -13
BITMAP
001C638000
001C638000
0000000000
0000000000
0000000000
001C638000
001C638000
001C638000
0000000000
0000000000
0000000000
031C638E00
031C638E00
031C638E00
0000000000
0000000000
E31C038E70
E31C038E70
E31C038E70
0000000000
0000000000
0000000000
E31C000000
E31C000000
E31C000000
0000000000
0000000000
0000000000
031C638E00
031C638E00
0000000000
0000000000
0000000000
031C638E00
031C638E00
031C638E00
0000000000
0000000000
0000000000
0000038E70
0000038E70
0000000000
0000000000
0000000000
E31C038E70
E31C038E70
E31C038E70
0000000000
0000000000
0000000000
031C638E00
031C638E00
031C638E00
0000000000
0000000000
001C638000
001C638000
001C638000
0000000000
0000000000
0000000000
001C638000
001C638000
001C638000
ENDCHAR
STARTCHAR 0025
ENCODING 37
SWIDTH 656 0
DWIDTH 42 0
BBX 36 64 0 -13
BITMAP
0000038E70
0000038E70
0000000000
0000000000
0000000000
E300038E70
E300038E70
E300038E70
0000000000
0000000000
0000000000
E300638E00
E300638E00
E300638E00
0000000000
0000000000
0000638E00
0000638E00
0000638E00
0000000000
0000000000
0000000000
001C638000
001C638000
001C638000
0000000000
0000000000
0000000000
001C638000
001C638000
0000000000
0000000000
0000000000
001C638000
001C638000
001C638000
0000000000
0000000000
0000000000
001C638000
001C638000
0000000000
0000000000
0000000000
031C600000
031C600000
031C600000
0000000000
0000000000
0000000000
031C600E70
031C600E70
031C600E70
0000000000
0000000000
E31C000E70
E31C000E70
E31C000E70
0000000000
0000000000
0000000000
E31C000000
E31C000000
E31C000000
ENDCHAR
STARTCHAR 0026
ENCODING 38
SWIDTH 765 0
DWIDTH 49 0
BBX 42 64 0 -13
BITMAP
031C638E0000
031C638E0000
000000000000
000000000000
000000000000
E31C638E7000
E31C638E7000
E31C638E7000
000000000000
000000000000
000000000000
E31C038E7000
E31C038E7000
E31C038E7000
000000000000
000000000000
031C038E7000
031C038E7000
031C038E7000
000000000000
000000000000
000000000000
001C638E0000
001C638E0000
001C638E0000
000000000000
000000000000
000000000000
031C638E0000
031C638E0000
000000000000
000000000000
000000000000
031C038E0000
031C038E0000
031C038E0000
000000000000
000000000000
000000000000
E31C038E7000
E31C038E7000
000000000000
000000000000
000000000000
E31C038E71C0
E31C038E71C0
E31C038E71C0
000000000000
000000000000
000000000000
E31C638E71C0
E31C638E71C0
E31C638E71C0
000000000000
000000000000
E31C638E7000
E31C638E7000
E31C638E7000
000000000000
000000000000
000000000000
031C600E7000
031C600E7000
031C600E7000
ENDCHAR
STARTCHAR 0027
ENCODING 39
SWIDTH 265 0
DWIDTH 17 0
BBX 8 14 0 37
BITMAP
E3
E3
E3
00
00
E3
E3
E3
00
00
00
E0
E0
E0
ENDCHAR
STARTCHAR 0028
ENCODING 40
SWIDTH 515 0
DWIDTH 33 0
BBX 25 64 0 -13
BITMAP
001C6380
001C6380
00000000
00000000
00000000
031C6000
031C6000
031C6000
00000000
00000000
00000000
E31C0000
E31C0000
E31C0000
00000000
00000000
E31C0000
E31C0000
E31C0000
00000000
00000000
00000000
E31C0000
E31C0000
E31C0000
00000000
00000000
00000000
E31C0000
E31C0000
00000000
00000000
00000000
E31C0000
E31C0000
E31C0000
00000000
00000000
00000000
E31C0000
E31C0000
00000000
00000000
00000000
E31C0000
E31C0000
E31C0000
00000000
00000000
00000000
E31C0000
E31C0000
E31C0000
00000000
00000000
031C6000
031C6000
031C6000
00000000
00000000
00000000
001C6380
001C6380
001C6380
ENDCHAR
STARTCHAR 0029
ENCODING 41
SWIDTH 531 0
DWIDTH 34 0
BBX 25 64 0 -13
BITMAP
E31C0000
E31C0000
00000000
00000000
00000000
031C6000
031C6000
031C6000
00000000
00000000
00000000
001C6380
001C6380
001C6380
00000000
00000000
001C6380
001C6380
001C6380
00000000
00000000
00000000
001C6380
001C6380
001C6380
00000000
00000000
00000000
001C6380
001C6380
00000000
00000000
00000000
001C6380
001C6380
001C6380
00000000
00000000
00000000
001C6380
001C6380
00000000
00000000
00000000
001C6380
001C6380
001C6380
00000000
00000000
00000000
001C6380
001C6380
001C6380
00000000
00000000
031C6000
031C6000
031C6000
00000000
00000000
00000000
E31C0000
E31C0000
E31C0000
ENDCHAR
STARTCHAR 002A
ENCODING 42
SWIDTH 656 0
DWIDTH 42 0
BBX 36 48 0 -2
BITMAP
0300000E00
0300000E00
0300000E00
0000000000
0000000000
0000000000
E31C038E70
E31C038E70
E31C038E70
0000000000
0000000000
031C038E00
031C038E00
031C038E00
0000000000
0000000000
0000000000
031C638E00
031C638E00
031C638E00
0000000000
0000000000
0000000000
001C638000
001C638000
0000000000
0000000000
0000000000
031C638E00
031C638E00
031C638E00
0000000000
0000000000
0000000000
031C038E00
031C038E00
0000000000
0000000000
0000000000
E31C038E70
E31C038E70
E31C038E70
0000000000
0000000000
0000000000
0300000E00
0300000E00
0300000E00
ENDCHAR
STARTCHAR 002B
ENCODING 43
SWIDTH 656 0
DWIDTH 42 0
BBX 36 42 0 -2
BITMAP
001C638000
001C638000
001C638000
0000000000
0000000000
001C638000
001C638000
001C638000
0000000000
0000000000
0000000000
001C638000
001C638000
001C638000
0000000000
0000000000
0000000000
E31C638E70
E31C638E70
0000000000
0000000000
0000000000
E31C638E70
E31C638E70
E31C638E70
0000000000
0000000000
0000000000
001C638000
001C638000
0000000000
0000000000
0000000000
001C638000
001C638000
001C638000
0000000000
0000000000
0000000000
001C638000
001C638000
001C638000
ENDCHAR
STARTCHAR 002C
ENCODING 44
SWIDTH 421 0
DWIDTH 27 0
BBX 14 20 0 -13
BITMAP
E31C
E31C
E31C
0000
0000
0000
E31C
E31C
E31C
0000
0000
031C
031C
031C
0000
0000
0000
031C
031C
031C
ENDCHAR
STARTCHAR 002D
ENCODING 45
SWIDTH 656 0
DWIDTH 42 0
BBX 36 8 0 15
BITMAP
E31C638E70
E31C638E70
0000000000
0000000000
0000000000
E31C638E70
E31C638E70
E31C638E70
ENDCHAR
STARTCHAR 002E
ENCODING 46
SWIDTH 375 0
DWIDTH 24 0
BBX 14 9 0 -13
BITMAP
E31C
E31C
E31C
0000
0000
0000
E31C
E31C
E31C
ENDCHAR
STARTCHAR 002F
ENCODING 47
SWIDTH 656 0
DWIDTH 42 0
BBX 36 64 0 -13
BITMAP
0000038E70
0000038E70
0000000000
0000000000
0000000000
0000038E70
0000038E70
0000038E70
0000000000
0000000000
0000000000
0000638E00
0000638E00
0000638E00
0000000000
0000000000
0000638E00
0000638E00
0000638E00
0000000000
0000000000
0000000000
001C638000
001C638000
001C638000
0000000000
0000000000
0000000000
001C638000
001C638000
0000000000
0000000000
0000000000
001C638000
001C638000
001C638000
0000000000
0000000000
0000000000
001C638000
001C638000
0000000000
0000000000
0000000000
031C600000
031C600000
031C600000
0000000000
0000000000
0000000000
031C600000
031C600000
031C600000
0000000000
0000000000
E31C000000
E31C000000
E31C000000
0000000000
0000000000
0000000000
E31C000000
E31C000000
E31C000000
ENDCHAR
STARTCHAR 0030
ENCODING 48
SWIDTH 656 0
DWIDTH 42 0
BBX 36 64 0 -13
BITMAP
031C638E00
031C638E00
0000000000
0000000000
0000000000
E31C638E70
E31C638E70
E31C638E70
0000000000
0000000000
0000000000
E31C038E70
E31C038E70
E31C038E70
0000000000
0000000000
E31C038E70
E31C038E70
E31C038E70
0000000000
0000000000
0000000000
E31C038E70
E31C038E70
E31C038E70
0000000000
0000000000
0000000000
E31C038E70
E31C038E70
0000000000
0000000000
0000000000
E31C038E70
E31C038E70
E31C038E70
0000000000
0000000000
0000000000
E31C038E70
E31C038E70
0000000000
0000000000
0000000000
E31C038E70
E31C038E70
E31C038E70
0000000000
0000000000
0000000000
E31C038E70
E31C038E70
E31C038E70
0000000000
0000000000
E31C638E70
E31C638E70
E31C638E70
0000000000
0000000000
0000000000
031C638E00
031C638E00
031C638E00
ENDCHAR
STARTCHAR 0031
ENCODING 49
SWIDTH 531 0
DWIDTH 34 0
BBX 25 64 0 -13
BITMAP
031C6000
031C6000
00000000
00000000
00000000
031C6000
031C6000
031C6000
00000000
00000000
00000000
E31C6000
E31C6000
E31C6000
00000000
00000000
E31C6000
E31C6000
E31C6000
00000000
00000000
00000000
031C6000
031C6000
031C6000
00000000
00000000
00000000
031C6000
031C6000
00000000
00000000
00000000
031C6000
031C6000
031C6000
00000000
00000000
00000000
031C6000
031C6000
00000000
00000000
00000000
031C6000
031C6000
031C6000
00000000
00000000
00000000
031C6000
031C6000
031C6000
00000000
00000000
E31C6380
E31C6380
E31C6380
00000000
00000000
00000000
E31C6380
E31C6380
E31C6380
ENDCHAR
STARTCHAR 0032
ENCODING 50
SWIDTH 656 0
DWIDTH 42 0
BBX 36 64 0 -13
BITMAP
031C638E00
031C638E00
0000000000
0000000000
0000000000
E31C638E70
E31C638E70
E31C638E70
0000000000
0000000000
0000000000
E31C038E70
E31C038E70
E31C038E70
0000000000
0000000000
0000038E70
0000038E70
0000038E70
0000000000
0000000000
0000000000
0000038E70
0000038E70
0000038E70
0000000000
0000000000
0000000000
031C638E70
031C638E70
0000000000
0000000000
0000000000
E31C638E00
E31C638E00
E31C638E00
0000000000
0000000000
0000000000
E31C000000
E31C000000
0000000000
0000000000
0000000000
E31C000000
E31C000000
E31C000000
0000000000
0000000000
0000000000
E31C038E70
E31C038E70
E31C038E70
0000000000
0000000000
E31C638E70
E31C638E70
E31C638E70
0000000000
0000000000
0000000000
E31C638E70
E31C638E70
E31C638E70
ENDCHAR
STARTCHAR 0033
ENCODING 51
SWIDTH 656 0
DWIDTH 42 0
BBX 36 64 0 -13
BITMAP
031C638E00
031C638E00
0000000000
0000000000
0000000000
E31C638E70
E31C638E70
E31C638E70
0000000000
0000000000
0000000000
E31C038E70
E31C038E70
E31C038E70
0000000000
0000000000
0000038E70
0000038E70
0000038E70
0000000000
0000000000
0000000000
0000038E70
0000038E70
0000038E70
0000000000
0000000000
0000000000
0000638E00
0000638E00
0000000000
0000000000
0000000000
0000638E00
0000638E00
0000638E00
0000000000
0000000000
0000000000
0000038E70
0000038E70
0000000000
0000000000
0000000000
0000038E70
0000038E70
0000038E70
0000000000
0000000000
0000000000
E31C038E70
E31C038E70
E31C038E70
0000000000
0000000000
E31C638E70
E31C638E70
E31C638E70
0000000000
0000000000
0000000000
031C638E00
031C638E00
031C638E00
ENDCHAR
STARTCHAR 0034
ENCODING 52
SWIDTH 656 0
DWIDTH 42 0
BBX 36 64 0 -13
BITMAP
E31C038E70
E31C038E70
0000000000
0000000000
0000000000
E31C038E70
E31C038E70
E31C038E70
0000000000
0000000000
0000000000
E31C038E70
E31C038E70
E31C038E70
0000000000
0000000000
E31C038E70
E31C038E70
E31C038E70
0000000000
0000000000
0000000000
E31C038E70
E31C038E70
E31C038E70
0000000000
0000000000
0000000000
E31C638E70
E31C638E70
0000000000
0000000000
0000000000
E31C638E70
E31C638E70
E31C638E70
0000000000
0000000000
0000000000
0000038E70
0000038E70
0000000000
0000000000
0000000000
0000038E70
0000038E70
0000038E70
0000000000
0000000000
0000000000
0000038E70
0000038E70
0000038E70
0000000000
0000000000
0000038E70
0000038E70
0000038E70
0000000000
0000000000
0000000000
0000038E70
0000038E70
0000038E70
ENDCHAR
STARTCHAR 0035
ENCODING 53
SWIDTH 656 0
DWIDTH 42 0
BBX 36 64 0 -13
BITMAP
E31C638E00
E31C638E00
0000000000
0000000000
0000000000
E31C638E00
E31C638E00
E31C638E00
0000000000
0000000000
0000000000
E31C000000
E31C000000
E31C000000
0000000000
0000000000
E31C000000
E31C000000
E31C000000
0000000000
0000000000
0000000000
E31C638E00
E31C638E00
E31C638E00
0000000000
0000000000
0000000000
E31C638E70
E31C638E70
0000000000
0000000000
0000000000
0000038E70
0000038E70
0000038E70
0000000000
0000000000
0000000000
0000038E70
0000038E70
0000000000
0000000000
0000000000
E31C038E70
E31C038E70
E31C038E70
0000000000
0000000000
0000000000
E31C038E70
E31C038E70
E31C038E70
0000000000
0000000000
E31C638E70
E31C638E70
E31C638E70
0000000000
0000000000
0000000000
031C638E00
031C638E00
031C638E00
ENDCHAR
STARTCHAR 0036
ENCODING 54
SWIDTH 656 0
DWIDTH 42 0
BBX 36 64 0 -13
BITMAP
031C638E00
031C638E00
0000000000
0000000000
0000000000
E31C638E70
E31C638E70
E31C638E70
0000000000
0000000000
0000000000
E31C038E70
E31C038E70
E31C038E70
0000000000
0000000000
E31C000000
E31C000000
E31C000000
0000000000
0000000000
0000000000
E31C000000
E31C000000
E31C000000
0000000000
0000000000
0000000000
E31C638E00
E31C638E00
0000000000
0000000000
0000000000
E31C638E70
E31C638E70
E31C638E70
0000000000
0000000000
0000000000
E31C038E70
E31C038E70
0000000000
0000000000
0000000000
E31C038E70
E31C038E70
E31C038E70
0000000000
0000000000
0000000000
E31C038E70
E31C038E70
E31C038E70
0000000000
0000000000
E31C638E70
E31C638E70
E31C638E70
0000000000
0000000000
0000000000
031C638E00
031C638E00
031C638E00
ENDCHAR
STARTCHAR 0037
ENCODING 55
SWIDTH 656 0
DWIDTH 42 0
BBX 36 64 0 -13
BITMAP
E31C638E70
E31C638E70
0000000000
0000000000
0000000000
E31C638E70
E31C638E70
E31C638E70
0000000000
0000000000
0000000000
E31C038E70
E31C038E70
E31C038E70
0000000000
0000000000
0000038E70
0000038E70
0000038E70
0000000000
0000000000
0000000000
0000638E00
0000638E00
0000638E00
0000000000
0000000000
0000000000
001C638000
001C638000
0000000000
0000000000
0000000000
001C638000
001C638000
001C638000
0000000000
0000000000
0000000000
001C638000
001C638000
0000000000
0000000000
0000000000
001C638000
001C638000
001C638000
0000000000
0000000000
0000000000
001C638000
001C638000
001C638000
0000000000
0000000000
001C638000
001C638000
001C638000
0000000000
0000000000
0000000000
001C638000
001C638000
001C638000
ENDCHAR
STARTCHAR 0038
ENCODING 56
SWIDTH 656 0
DWIDTH 42 0
BBX 36 64 0 -13
BITMAP
031C638E00
031C638E00
0000000000
0000000000
0000000000
E31C638E70
E31C638E70
E31C638E70
0000000000
0000000000
0000000000
E31C038E70
E31C038E70
E31C038E70
0000000000
0000000000
E31C038E70
E31C038E70
E31C038E70
0000000000
0000000000
0000000000
E31C038E70
E31C038E70
E31C038E70
0000000000
0000000000
0000000000
031C638E00
031C638E00
0000000000
0000000000
0000000000
031C638E00
031C638E00
031C638E00
0000000000
0000000000
0000000000
E31C038E70
E31C038E70
0000000000
0000000000
0000000000
E31C038E70
E31C038E70
E31C038E70
0000000000
0000000000
0000000000
E31C038E70
E31C038E70
E31C038E70
0000000000
0000000000
E31C638E70
E31C638E70
E31C638E70
0000000000
0000000000
0000000000
031C638E00
031C638E00
031C638E00
ENDCHAR
STARTCHAR 0039
ENCODING 57
SWIDTH 656 0
DWIDTH 42 0
BBX 36 64 0 -13
BITMAP
031C638E00
031C638E00
0000000000
0000000000
0000000000
E31C638E70
E31C638E70
E31C638E70
0000000000
0000000000
0000000000
E31C038E70
E31C038E70
E31C038E70
0000000000
0000000000
E31C038E70
E31C038E70
E31C038E70
0000000000
0000000000
0000000000
E31C038E70
E31C038E70
E31C038E70
0000000000
0000000000
0000000000
E31C638E70
E31C638E70
0000000000
0000000000
0000000000
031C638E70
031C638E70
031C638E70
0000000000
0000000000
0000000000
0000038E70
0000038E70
0000000000
0000000000
0000000000
0000038E70
0000038E70
0000038E70
0000000000
0000000000
0000000000
E31C038E70
E31C038E70
E31C038E70
0000000000
0000000000
E31C638E70
E31C638E70
E31C638E70
0000000000
0000000000
0000000000
031C638E00
031C638E00
031C638E00
ENDCHAR
STARTCHAR 003A
ENCODING 58
SWIDTH 406 0
DWIDTH 26 0
BBX 14 31 0 4
BITMAP
E31C
E31C
E31C
0000
0000
0000
E31C
E31C
E31C
0000
0000
0000
0000
0000
0000
0000
0000
0000
0000
0000
0000
0000
0000
E31C
E31C
0000
0000
0000
E31C
E31C
E31C
ENDCHAR
STARTCHAR 003B
ENCODING 59
SWIDTH 390 0
DWIDTH 25 0
BBX 14 42 0 -7
BITMAP
E31C
E31C
E31C
0000
0000
0000
E31C
E31C
E31C
0000
0000
0000
0000
0000
0000
0000
0000
0000
0000
0000
0000
0000
0000
E31C
E31C
0000
0000
0000
E31C
E31C
E31C
0000
0000
0000
031C
031C
031C
0000
0000
031C
031C
031C
ENDCHAR
STARTCHAR 003C
ENCODING 60
SWIDTH 468 0
DWIDTH 30 0
BBX 19 42 0 -2
BITMAP
000060
000060
000060
000000
000000
001C60
001C60
001C60
000000
000000
000000
031C00
031C00
031C00
000000
000000
000000
E30000
E30000
000000
000000
000000
E30000
E30000
E30000
000000
000000
000000
031C00
031C00
000000
000000
000000
001C60
001C60
001C60
000000
000000
000000
000060
000060
000060
ENDCHAR
STARTCHAR 003D
ENCODING 61
SWIDTH 656 0
DWIDTH 42 0
BBX 36 31 0 4
BITMAP
E31C638E70
E31C638E70
E31C638E70
0000000000
0000000000
0000000000
E31C638E70
E31C638E70
E31C638E70
0000000000
0000000000
0000000000
0000000000
0000000000
0000000000
0000000000
0000000000
0000000000
0000000000
0000000000
0000000000
0000000000
0000000000
E31C638E70
E31C638E70
0000000000
0000000000
0000000000
E31C638E70
E31C638E70
E31C638E70
ENDCHAR
STARTCHAR 003E
ENCODING 62
SWIDTH 453 0
DWIDTH 29 0
BBX 19 42 0 -2
BITMAP
E00000
E00000
E00000
000000
000000
E30000
E30000
E30000
000000
000000
000000
031C00
031C00
031C00
000000
000000
000000
001C60
001C60
000000
000000
000000
001C60
001C60
001C60
000000
000000
000000
031C00
031C00
000000
000000
000000
E30000
E30000
E30000
000000
000000
000000
E00000
E00000
E00000
ENDCHAR
STARTCHAR 003F
ENCODING 63
SWIDTH 656 0
DWIDTH 42 0
BBX 36 64 0 -13
BITMAP
031C638E00
031C638E00
0000000000
0000000000
0000000000
E31C638E70
E31C638E70
E31C638E70
0000000000
0000000000
0000000000
E31C038E70
E31C038E70
E31C038E70
0000000000
0000000000
E31C038E70
E31C038E70
E31C038E70
0000000000
0000000000
0000000000
0000038E70
0000038E70
0000038E70
0000000000
0000000000
0000000000
0000638E00
0000638E00
0000000000
0000000000
0000000000
001C638000
001C638000
001C638000
0000000000
0000000000
0000000000
001C638000
001C638000
0000000000
0000000000
0000000000
0000000000
0000000000
0000000000
0000000000
0000000000
0000000000
001C638000
001C638000
001C638000
0000000000
0000000000
001C638000
001C638000
001C638000
0000000000
0000000000
0000000000
001C638000
001C638000
001C638000
ENDCHAR
STARTCHAR 0041
ENCODING 65
SWIDTH 656 0
DWIDTH 42 0
BBX 36 64 0 -13
BITMAP
031C638E00
031C638E00
0000000000
0000000000
0000000000
E31C638E70
E31C638E70
E31C638E70
0000000000
0000000000
0000000000
E31C038E70
E31C038E70
E31C038E70
0000000000
0000000000
E31C038E70
E31C038E70
E31C038E70
0000000000
0000000000
0000000000
E31C038E70
E31C038E70
E31C038E70
0000000000
0000000000
0000000000
E31C638E70
E31C638E70
0000000000
0000000000
0000000000
E31C638E70
E31C638E70
E31C638E70
0000000000
0000000000
0000000000
E31C038E70
E31C038E70
0000000000
0000000000
0000000000
E31C038E70
E31C038E70
E31C038E70
0000000000
0000000000
0000000000
E31C038E70
E31C038E70
E31C038E70
0000000000
0000000000
E31C038E70
E31C038E70
E31C038E70
0000000000
0000000000
0000000000
E31C038E70
E31C038E70
E31C038E70
ENDCHAR
STARTCHAR 0042
ENCODING 66
SWIDTH 656 0
DWIDTH 42 0
BBX 36 64 0 -13
BITMAP
E31C638E00
E31C638E00
0000000000
0000000000
0000000000
E31C638E70
E31C638E70
E31C638E70
0000000000
0000000000
0000000000
E31C038E70
E31C038E70
E31C038E70
0000000000
0000000000
E31C038E70
E31C038E70
E31C038E70
0000000000
0000000000
0000000000
E31C038E70
E31C038E70
E31C038E70
0000000000
0000000000
0000000000
E31C638E00
E31C638E00
0000000000
0000000000
0000000000
E31C638E00
E31C638E00
E31C638E00
0000000000
0000000000
0000000000
E31C038E70
E31C038E70
0000000000
0000000000
0000000000
E31C038E70
E31C038E70
E31C038E70
0000000000
0000000000
0000000000
E31C038E70
E31C038E70
E31C038E70
0000000000
0000000000
E31C638E70
E31C638E70
E31C638E70
0000000000
0000000000
0000000000
E31C638E00
E31C638E00
E31C638E00
ENDCHAR
STARTCHAR 0043
ENCODING 67
SWIDTH 656 0
DWIDTH 42 0
BBX 36 64 0 -13
BITMAP
031C638E00
031C638E00
0000000000
0000000000
0000000000
E31C638E70
E31C638E70
E31C638E70
0000000000
0000000000
0000000000
E31C038E70
E31C038E70
E31C038E70
0000000000
0000000000
E31C038E70
E31C038E70
E31C038E70
0000000000
0000000000
0000000000
E31C000000
E31C000000
E31C000000
0000000000
0000000000
0000000000
E31C000000
E31C000000
0000000000
0000000000
0000000000
E31C000000
E31C000000
E31C000000
0000000000
0000000000
0000000000
E31C000000
E31C000000
0000000000
0000000000
0000000000
E31C038E70
E31C038E70
E31C038E70
0000000000
0000000000
0000000000
E31C038E70
E31C038E70
E31C038E70
0000000000
0000000000
E31C638E70
E31C638E70
E31C638E70
0000000000
0000000000
0000000000
031C638E00
031C638E00
031C638E00
ENDCHAR
STARTCHAR 0044
ENCODING 68
SWIDTH 656 0
DWIDTH 42 0
BBX 36 64 0 -13
BITMAP
E31C638E00
E31C638E00
0000000000
0000000000
0000000000
E31C638E70
E31C638E70
E31C638E70
0000000000
0000000000
0000000000
E31C038E70
E31C038E70
E31C038E70
0000000000
0000000000
E31C038E70
E31C038E70
E31C038E70
0000000000
0000000000
0000000000
E31C038E70
E31C038E70
E31C038E70
0000000000
0000000000
0000000000
E31C038E70
E31C038E70
0000000000
0000000000
0000000000
E31C038E70
E31C038E70
E31C038E70
0000000000
0000000000
0000000000
E31C038E70
E31C038E70
0000000000
0000000000
0000000000
E31C038E70
E31C038E70
E31C038E70
0000000000
0000000000
0000000000
E31C038E70
E31C038E70
E31C038E70
0000000000
0000000000
E31C638E70
E31C638E70
E31C638E70
0000000000
0000000000
0000000000
E31C638E00
E31C638E00
E31C638E00
ENDCHAR
STARTCHAR 0045
ENCODING 69
SWIDTH 656 0
DWIDTH 42 0
BBX 36 64 0 -13
BITMAP
E31C638E70
E31C638E70
0000000000
0000000000
0000000000
E31C638E70
E31C638E70
E31C638E70
0000000000
0000000000
0000000000
E31C000000
E31C000000
E31C000000
0000000000
0000000000
E31C000000
E31C000000
E31C000000
0000000000
0000000000
0000000000
E31C000000
E31C000000
E31C000000
0000000000
0000000000
0000000000
E31C638E00
E31C638E00
0000000000
0000000000
0000000000
E31C638E00
E31C638E00
E31C638E00
0000000000
0000000000
0000000000
E31C000000
E31C000000
0000000000
0000000000
0000000000
E31C000000
E31C000000
E31C000000
0000000000
0000000000
0000000000
E31C000000
E31C000000
E31C000000
0000000000
0000000000
E31C638E70
E31C638E70
E31C638E70
0000000000
0000000000
0000000000
E31C638E70
E31C638E70
E31C638E70
ENDCHAR
STARTCHAR 0046
ENCODING 70
SWIDTH 656 0
DWIDTH 42 0
BBX 36 64 0 -13
BITMAP
E31C638E70
E31C638E70
0000000000
0000000000
0000000000
E31C638E70
E31C638E70
E31C638E70
0000000000
0000000000
0000000000
E31C000000
E31C000000
E31C000000
0000000000
0000000000
E31C000000
E31C000000
E31C000000
0000000000
0000000000
0000000000
E31C000000
E31C000000
E31C000000
0000000000
0000000000
0000000000
E31C638E00
E31C638E00
0000000000
0000000000
0000000000
E31C638E00
E31C638E00
E31C638E00
0000000000
0000000000
0000000000
E31C000000
E31C000000
0000000000
0000000000
0000000000
E31C000000
E31C000000
E31C000000
0000000000
0000000000
0000000000
E31C000000
E31C000000
E31C000000
0000000000
0000000000
E31C000000
E31C000000
E31C000000
0000000000
0000000000
0000000000
E31C000000
E31C000000
E31C000000
ENDCHAR
STARTCHAR 0047
ENCODING 71
SWIDTH 656 0
DWIDTH 42 0
BBX 36 64 0 -13
BITMAP
031C638E00
031C638E00
0000000000
0000000000
0000000000
E31C638E70
E31C638E70
E31C638E70
0000000000
0000000000
0000000000
E31C038E70
E31C038E70
E31C038E70
0000000000
0000000000
E31C038E70
E31C038E70
E31C038E70
0000000000
0000000000
0000000000
E31C000000
E31C000000
E31C000000
0000000000
0000000000
0000000000
E31C038E70
E31C038E70
0000000000
0000000000
0000000000
E31C038E70
E31C038E70
E31C038E70
0000000000
0000000000
0000000000
E31C038E70
E31C038E70
0000000000
0000000000
0000000000
E31C038E70
E31C038E70
E31C038E70
0000000000
0000000000
0000000000
E31C038E70
E31C038E70
E31C038E70
0000000000
0000000000
E31C638E70
E31C638E70
E31C638E70
0000000000
0000000000
0000000000
031C638E70
031C638E70
031C638E70
ENDCHAR
STARTCHAR 0048
ENCODING 72
SWIDTH 656 0
DWIDTH 42 0
BBX 36 64 0 -13
BITMAP
E31C038E70
E31C038E70
0000000000
0000000000
0000000000
E31C038E70
E31C038E70
E31C038E70
0000000000
0000000000
0000000000
E31C038E70
E31C038E70
E31C038E70
0000000000
0000000000
E31C038E70
E31C038E70
E31C038E70
0000000000
0000000000
0000000000
E31C038E70
E31C038E70
E31C038E70
0000000000
0000000000
0000000000
E31C638E70
E31C638E70
0000000000
0000000000
0000000000
E31C638E70
E31C638E70
E31C638E70
0000000000
0000000000
0000000000
E31C038E70
E31C038E70
0000000000
0000000000
0000000000
E31C038E70
E31C038E70
E31C038E70
0000000000
0000000000
0000000000
E31C038E70
E31C038E70
E31C038E70
0000000000
0000000000
E31C038E70
E31C038E70
E31C038E70
0000000000
0000000000
0000000000
E31C038E70
E31C038E70
E31C038E70
ENDCHAR
STARTCHAR 0049
ENCODING 73
SWIDTH 328 0
DWIDTH 21 0
BBX 14 64 0 -13
BITMAP
E31C
E31C
0000
0000
0000
E31C
E31C
E31C
0000
0000
0000
E31C
E31C
E31C
0000
0000
E31C
E31C
E31C
0000
0000
0000
E31C
E31C
E31C
0000
0000
0000
E31C
E31C
0000
0000
0000
E31C
E31C
E31C
0000
0000
0000
E31C
E31C
0000
0000
0000
E31C
E31C
E31C
0000
0000
0000
E31C
E31C
E31C
0000
0000
E31C
E31C
E31C
0000
0000
0000
E31C
E31C
E31C
ENDCHAR
STARTCHAR 004A
ENCODING 74
SWIDTH 656 0
DWIDTH 42 0
BBX 36 64 0 -13
BITMAP
0000038E70
0000038E70
0000000000
0000000000
0000000000
0000038E70
0000038E70
0000038E70
0000000000
0000000000
0000000000
0000038E70
0000038E70
0000038E70
0000000000
0000000000
0000038E70
0000038E70
0000038E70
0000000000
0000000000
0000000000
0000038E70
0000038E70
0000038E70
0000000000
0000000000
0000000000
0000038E70
0000038E70
0000000000
0000000000
0000000000
0000038E70
0000038E70
0000038E70
0000000000
0000000000
0000000000
0000038E70
0000038E70
0000000000
0000000000
0000000000
E31C038E70
E31C038E70
E31C038E70
0000000000
0000000000
0000000000
E31C038E70
E31C038E70
E31C038E70
0000000000
0000000000
E31C638E70
E31C638E70
E31C638E70
0000000000
0000000000
0000000000
031C638E00
031C638E00
031C638E00
ENDCHAR
STARTCHAR 004B
ENCODING 75
SWIDTH 656 0
DWIDTH 42 0
BBX 36 64 0 -13
BITMAP
E31C038E70
E31C038E70
0000000000
0000000000
0000000000
E31C038E70
E31C038E70
E31C038E70
0000000000
0000000000
0000000000
E31C038E70
E31C038E70
E31C038E70
0000000000
0000000000
E31C038E70
E31C038E70
E31C038E70
0000000000
0000000000
0000000000
E31C038E70
E31C038E70
E31C038E70
0000000000
0000000000
0000000000
E31C638E00
E31C638E00
0000000000
0000000000
0000000000
E31C638E00
E31C638E00
E31C638E00
0000000000
0000000000
0000000000
E31C038E70
E31C038E70
0000000000
0000000000
0000000000
E31C038E70
E31C038E70
E31C038E70
0000000000
0000000000
0000000000
E31C038E70
E31C038E70
E31C038E70
0000000000
0000000000
E31C038E70
E31C038E70
E31C038E70
0000000000
0000000000
0000000000
E31C038E70
E31C038E70
E31C038E70
ENDCHAR
STARTCHAR 004C
ENCODING 76
SWIDTH 656 0
DWIDTH 42 0
BBX 36 64 0 -13
BITMAP
E31C000000
E31C000000
0000000000
0000000000
0000000000
E31C000000
E31C000000
E31C000000
0000000000
0000000000
0000000000
E31C000000
E31C000000
E31C000000
0000000000
0000000000
E31C000000
E31C000000
E31C000000
0000000000
0000000000
0000000000
E31C000000
E31C000000
E31C000000
0000000000
0000000000
0000000000
E31C000000
E31C000000
0000000000
0000000000
0000000000
E31C000000
E31C000000
E31C000000
0000000000
0000000000
0000000000
E31C000000
E31C000000
0000000000
0000000000
0000000000
E31C000000
E31C000000
E31C000000
0000000000
0000000000
0000000000
E31C000000
E31C000000
E31C000000
0000000000
0000000000
E31C638E70
E31C638E70
E31C638E70
0000000000
0000000000
0000000000
E31C638E70
E31C638E70
E31C638E70
ENDCHAR
STARTCHAR 004D
ENCODING 77
SWIDTH 1015 0
DWIDTH 65 0
BBX 58 64 0 -13
BITMAP
031C638071C63800
031C638071C63800
0000000000000000
0000000000000000
0000000000000000
E31C638E71C638C0
E31C638E71C638C0
E31C638E71C638C0
0000000000000000
0000000000000000
0000000000000000
E31C038E700638C0
E31C038E700638C0
E31C038E700638C0
0000000000000000
0000000000000000
E31C038E700638C0
E31C038E700638C0
E31C038E700638C0
0000000000000000
0000000000000000
0000000000000000
E31C038E700638C0
E31C038E700638C0
E31C038E700638C0
0000000000000000
0000000000000000
0000000000000000
E31C038E700638C0
E31C038E700638C0
0000000000000000
0000000000000000
0000000000000000
E31C038E700638C0
E31C038E700638C0
E31C038E700638C0
0000000000000000
0000000000000000
0000000000000000
E31C038E700638C0
E31C038E700638C0
0000000000000000
0000000000000000
0000000000000000
E31C038E700638C0
E31C038E700638C0
E31C038E700638C0
0000000000000000
0000000000000000
0000000000000000
E31C038E700638C0
E31C038E700638C0
E31C038E700638C0
0000000000000000
0000000000000000
E31C038E700638C0
E31C038E700638C0
E31C038E700638C0
0000000000000000
0000000000000000
0000000000000000
E31C038E700638C0
E31C038E700638C0
E31C038E700638C0
ENDCHAR
STARTCHAR 004E
ENCODING 78
SWIDTH 656 0
DWIDTH 42 0
BBX 36 64 0 -13
BITMAP
E31C638E00
E31C638E00
0000000000
0000000000
0000000000
E31C638E70
E31C638E70
E31C638E70
0000000000
0000000000
0000000000
E31C038E70
E31C038E70
E31C038E70
0000000000
0000000000
E31C038E70
E31C038E70
E31C038E70
0000000000
0000000000
0000000000
E31C038E70
E31C038E70
E31C038E70
0000000000
0000000000
0000000000
E31C038E70
E31C038E70
0000000000
0000000000
0000000000
E31C038E70
E31C038E70
E31C038E70
0000000000
0000000000
0000000000
E31C038E70
E31C038E70
0000000000
0000000000
0000000000
E31C038E70
E31C038E70
E31C038E70
0000000000
0000000000
0000000000
E31C038E70
E31C038E70
E31C038E70
0000000000
0000000000
E31C038E70
E31C038E70
E31C038E70
0000000000
0000000000
0000000000
E31C038E70
E31C038E70
E31C038E70
ENDCHAR
STARTCHAR 004F
ENCODING 79
SWIDTH 656 0
DWIDTH 42 0
BBX 36 64 0 -13
BITMAP
031C638E00
031C638E00
0000000000
0000000000
0000000000
E31C638E70
E31C638E70
E31C638E70
0000000000
0000000000
0000000000
E31C038E70
E31C038E70
E31C038E70
0000000000
0000000000
E31C038E70
E31C038E70
E31C038E70
0000000000
0000000000
0000000000
E31C038E70
E31C038E70
E31C038E70
0000000000
0000000000
0000000000
E31C038E70
E31C038E70
0000000000
0000000000
0000000000
E31C038E70
E31C038E70
E31C038E70
0000000000
0000000000
0000000000
E31C038E70
E31C038E70
0000000000
0000000000
0000000000
E31C038E70
E31C038E70
E31C038E70
0000000000
0000000000
0000000000
E31C038E70
E31C038E70
E31C038E70
0000000000
0000000000
E31C638E70
E31C638E70
E31C638E70
0000000000
0000000000
0000000000
031C638E00
031C638E00
031C638E00
ENDCHAR
STARTCHAR 0050
ENCODING 80
SWIDTH 656 0
DWIDTH 42 0
BBX 36 64 0 -13
BITMAP
E31C638E00
E31C638E00
0000000000
0000000000
0000000000
E31C638E70
E31C638E70
E31C638E70
0000000000
0000000000
0000000000
E31C038E70
E31C038E70
E31C038E70
0000000000
0000000000
E31C038E70
E31C038E70
E31C038E70
0000000000
0000000000
0000000000
E31C038E70
E31C038E70
E31C038E70
0000000000
0000000000
0000000000
E31C638E70
E31C638E70
0000000000
0000000000
0000000000
E31C638E00
E31C638E00
E31C638E00
0000000000
0000000000
0000000000
E31C000000
E31C000000
0000000000
0000000000
0000000000
E31C000000
E31C000000
E31C000000
0000000000
0000000000
0000000000
E31C000000
E31C000000
E31C000000
0000000000
0000000000
E31C000000
E31C000000
E31C000000
0000000000
0000000000
0000000000
E31C000000
E31C000000
E31C000000
ENDCHAR
STARTCHAR 0051
ENCODING 81
SWIDTH 750 0
DWIDTH 48 0
BBX 42 64 0 -13
BITMAP
031C638E0000
031C638E0000
000000000000
000000000000
000000000000
E31C638E7000
E31C638E7000
E31C638E7000
000000000000
000000000000
000000000000
E31C038E7000
E31C038E7000
E31C038E7000
000000000000
000000000000
E31C038E7000
E31C038E7000
E31C038E7000
000000000000
000000000000
000000000000
E31C038E7000
E31C038E7000
E31C038E7000
000000000000
000000000000
000000000000
E31C038E7000
E31C038E7000
000000000000
000000000000
000000000000
E31C038E7000
E31C038E7000
E31C038E7000
000000000000
000000000000
000000000000
E31C038E7000
E31C038E7000
000000000000
000000000000
000000000000
E31C038E7000
E31C038E7000
E31C038E7000
000000000000
000000000000
000000000000
E31C038E7000
E31C038E7000
E31C038E7000
000000000000
000000000000
E31C638E71C0
E31C638E71C0
E31C638E71C0
000000000000
000000000000
000000000000
031C638E71C0
031C638E71C0
031C638E71C0
ENDCHAR
STARTCHAR 0052
ENCODING 82
SWIDTH 656 0
DWIDTH 42 0
BBX 36 64 0 -13
BITMAP
E31C638E00
E31C638E00
0000000000
0000000000
0000000000
E31C638E70
E31C638E70
E31C638E70
0000000000
0000000000
0000000000
E31C038E70
E31C038E70
E31C038E70
0000000000
0000000000
E31C038E70
E31C038E70
E31C038E70
0000000000
0000000000
0000000000
E31C038E70
E31C038E70
E31C038E70
0000000000
0000000000
0000000000
E31C638E00
E31C638E00
0000000000
0000000000
0000000000
E31C638E00
E31C638E00
E31C638E00
0000000000
0000000000
0000000000
E31C038E70
E31C038E70
0000000000
0000000000
0000000000
E31C038E70
E31C038E70
E31C038E70
0000000000
0000000000
0000000000
E31C038E70
E31C038E70
E31C038E70
0000000000
0000000000
E31C038E70
E31C038E70
E31C038E70
0000000000
0000000000
0000000000
E31C038E70
E31C038E70
E31C038E70
ENDCHAR
STARTCHAR 0053
ENCODING 83
SWIDTH 656 0
DWIDTH 42 0
BBX 36 64 0 -13
BITMAP
031C638E00
031C638E00
0000000000
0000000000
0000000000
E31C638E70
E31C638E70
E31C638E70
0000000000
0000000000
0000000000
E31C038E70
E31C038E70
E31C038E70
0000000000
0000000000
E31C038E70
E31C038E70
E31C038E70
0000000000
0000000000
0000000000
E31C000000
E31C000000
E31C000000
0000000000
0000000000
0000000000
031C638E00
031C638E00
0000000000
0000000000
0000000000
031C638E00
031C638E00
031C638E00
0000000000
0000000000
0000000000
0000038E70
0000038E70
0000000000
0000000000
0000000000
E31C038E70
E31C038E70
E31C038E70
0000000000
0000000000
0000000000
E31C038E70
E31C038E70
E31C038E70
0000000000
0000000000
E31C638E70
E31C638E70
E31C638E70
0000000000
0000000000
0000000000
031C638E00
031C638E00
031C638E00
ENDCHAR
STARTCHAR 0054
ENCODING 84
SWIDTH 656 0
DWIDTH 42 0
BBX 36 64 0 -13
BITMAP
E31C638E70
E31C638E70
0000000000
0000000000
0000000000
E31C638E70
E31C638E70
E31C638E70
0000000000
0000000000
0000000000
001C638000
001C638000
001C638000
0000000000
0000000000
001C638000
001C638000
001C638000
0000000000
0000000000
0000000000
001C638000
001C638000
001C638000
0000000000
0000000000
0000000000
001C638000
001C638000
0000000000
0000000000
0000000000
001C638000
001C638000
001C638000
0000000000
0000000000
0000000000
001C638000
001C638000
0000000000
0000000000
0000000000
001C638000
001C638000
001C638000
0000000000
0000000000
0000000000
001C638000
001C638000
001C638000
0000000000
0000000000
001C638000
001C638000
001C638000
0000000000
0000000000
0000000000
001C638000
001C638000
001C638000
ENDCHAR
STARTCHAR 0055
ENCODING 85
SWIDTH 656 0
DWIDTH 42 0
BBX 36 64 0 -13
BITMAP
E31C038E70
E31C038E70
0000000000
0000000000
0000000000
E31C038E70
E31C038E70
E31C038E70
0000000000
0000000000
0000000000
E31C038E70
E31C038E70
E31C038E70
0000000000
0000000000
E31C038E70
E31C038E70
E31C038E70
0000000000
0000000000
0000000000
E31C038E70
E31C038E70
E31C038E70
0000000000
0000000000
0000000000
E31C038E70
E31C038E70
0000000000
0000000000
0000000000
E31C038E70
E31C038E70
E31C038E70
0000000000
0000000000
0000000000
E31C038E70
E31C038E70
0000000000
0000000000
0000000000
E31C038E70
E31C038E70
E31C038E70
0000000000
0000000000
0000000000
E31C038E70
E31C038E70
E31C038E70
0000000000
0000000000
E31C638E70
E31C638E70
E31C638E70
0000000000
0000000000
0000000000
031C638E00
031C638E00
031C638E00
ENDCHAR
STARTCHAR 0056
ENCODING 86
SWIDTH 656 0
DWIDTH 42 0
BBX 36 64 0 -13
BITMAP
E31C038E70
E31C038E70
0000000000
0000000000
0000000000
E31C038E70
E31C038E70
E31C038E70
0000000000
0000000000
0000000000
E31C038E70
E31C038E70
E31C038E70
0000000000
0000000000
E31C038E70
E31C038E70
E31C038E70
0000000000
0000000000
0000000000
E31C038E70
E31C038E70
E31C038E70
0000000000
0000000000
0000000000
E31C038E70
E31C038E70
0000000000
0000000000
0000000000
E31C038E70
E31C038E70
E31C038E70
0000000000
0000000000
0000000000
E31C038E70
E31C038E70
0000000000
0000000000
0000000000
E31C038E70
E31C038E70
E31C038E70
0000000000
0000000000
0000000000
E31C038E70
E31C038E70
E31C038E70
0000000000
0000000000
031C638E00
031C638E00
031C638E00
0000000000
0000000000
0000000000
001C638000
001C638000
001C638000
ENDCHAR
STARTCHAR 0057
ENCODING 87
SWIDTH 1015 0
DWIDTH 65 0
BBX 58 64 0 -13
BITMAP
E31C038E700638C0
E31C038E700638C0
0000000000000000
0000000000000000
0000000000000000
E31C038E700638C0
E31C038E700638C0
E31C038E700638C0
0000000000000000
0000000000000000
0000000000000000
E31C038E700638C0
E31C038E700638C0
E31C038E700638C0
0000000000000000
0000000000000000
E31C038E700638C0
E31C038E700638C0
E31C038E700638C0
0000000000000000
0000000000000000
0000000000000000
E31C038E700638C0
E31C038E700638C0
E31C038E700638C0
0000000000000000
0000000000000000
0000000000000000
E31C038E700638C0
E31C038E700638C0
0000000000000000
0000000000000000
0000000000000000
E31C038E700638C0
E31C038E700638C0
E31C038E700638C0
0000000000000000
0000000000000000
0000000000000000
E31C038E700638C0
E31C038E700638C0
0000000000000000
0000000000000000
0000000000000000
E31C038E700638C0
E31C038E700638C0
E31C038E700638C0
0000000000000000
0000000000000000
0000000000000000
E31C038E700638C0
E31C038E700638C0
E31C038E700638C0
0000000000000000
0000000000000000
E31C638E71C638C0
E31C638E71C638C0
E31C638E71C638C0
0000000000000000
0000000000000000
0000000000000000
031C638071C63800
031C638071C63800
031C638071C63800
ENDCHAR
STARTCHAR 0058
ENCODING 88
SWIDTH 656 0
DWIDTH 42 0
BBX 36 64 0 -13
BITMAP
E31C038E70
E31C038E70
0000000000
0000000000
0000000000
E31C038E70
E31C038E70
E31C038E70
0000000000
0000000000
0000000000
E31C038E70
E31C038E70
E31C038E70
0000000000
0000000000
E31C038E70
E31C038E70
E31C038E70
0000000000
0000000000
0000000000
E31C038E70
E31C038E70
E31C038E70
0000000000
0000000000
0000000000
031C638E00
031C638E00
0000000000
0000000000
0000000000
031C638E00
031C638E00
031C638E00
0000000000
0000000000
0000000000
E31C038E70
E31C038E70
0000000000
0000000000
0000000000
E31C038E70
E31C038E70
E31C038E70
0000000000
0000000000
0000000000
E31C038E70
E31C038E70
E31C038E70
0000000000
0000000000
E31C038E70
E31C038E70
E31C038E70
0000000000
0000000000
0000000000
E31C038E70
E31C038E70
E31C038E70
ENDCHAR
STARTCHAR 0059
ENCODING 89
SWIDTH 656 0
DWIDTH 42 0
BBX 36 64 0 -13
BITMAP
E31C038E70
E31C038E70
0000000000
0000000000
0000000000
E31C038E70
E31C038E70
E31C038E70
0000000000
0000000000
0000000000
E31C038E70
E31C038E70
E31C038E70
0000000000
0000000000
E31C038E70
E31C038E70
E31C038E70
0000000000
0000000000
0000000000
E31C038E70
E31C038E70
E31C038E70
0000000000
0000000000
0000000000
E31C638E70
E31C638E70
0000000000
0000000000
0000000000
031C638E00
031C638E00
031C638E00
0000000000
0000000000
0000000000
001C638000
001C638000
0000000000
0000000000
0000000000
001C638000
001C638000
001C638000
0000000000
0000000000
0000000000
001C638000
001C638000
001C638000
0000000000
0000000000
001C638000
001C638000
001C638000
0000000000
0000000000
0000000000
001C638000
001C638000
001C638000
ENDCHAR
STARTCHAR 005A
ENCODING 90
SWIDTH 656 0
DWIDTH 42 0
BBX 36 64 0 -13
BITMAP
E31C638E70
E31C638E70
0000000000
0000000000
0000000000
E31C638E70
E31C638E70
E31C638E70
0000000000
0000000000
0000000000
E31C038E70
E31C038E70
E31C038E70
0000000000
0000000000
0000038E70
0000038E70
0000038E70
0000000000
0000000000
0000000000
0000638E00
0000638E00
0000638E00
0000000000
0000000000
0000000000
001C638000
001C638000
0000000000
0000000000
0000000000
031C600000
031C600000
031C600000
0000000000
0000000000
0000000000
E31C000000
E31C000000
0000000000
0000000000
0000000000
E31C000000
E31C000000
E31C000000
0000000000
0000000000
0000000000
E31C038E70
E31C038E70
E31C038E70
0000000000
0000000000
E31C638E70
E31C638E70
E31C638E70
0000000000
0000000000
0000000000
E31C638E70
E31C638E70
E31C638E70
ENDCHAR
STARTCHAR 005B
ENCODING 91
SWIDTH 656 0
DWIDTH 42 0
BBX 19 64 0 -13
BITMAP
E31C60
E31C60
000000
000000
000000
E31C60
E31C60
E31C60
000000
000000
000000
E31C00
E31C00
E31C00
000000
000000
E31C00
E31C00
E31C00
000000
000000
000000
E31C00
E31C00
E31C00
000000
000000
000000
E31C00
E31C00
000000
000000
000000
E31C00
E31C00
E31C00
000000
000000
000000
E31C00
E31C00
000000
000000
000000
E31C00
E31C00
E31C00
000000
000000
000000
E31C00
E31C00
E31C00
000000
000000
E31C60
E31C60
E31C60
000000
000000
000000
E31C60
E31C60
E31C60
ENDCHAR
STARTCHAR 005C
ENCODING 92
SWIDTH 656 0
DWIDTH 42 0
BBX 36 64 0 -13
BITMAP
E31C000000
E31C000000
0000000000
0000000000
0000000000
E31C000000
E31C000000
E31C000000
0000000000
0000000000
0000000000
031C600000
031C600000
031C600000
0000000000
0000000000
031C600000
031C600000
031C600000
0000000000
0000000000
0000000000
001C638000
001C638000
001C638000
0000000000
0000000000
0000000000
001C638000
001C638000
0000000000
0000000000
0000000000
001C638000
001C638000
001C638000
0000000000
0000000000
0000000000
001C638000
001C638000
0000000000
0000000000
0000000000
0000638E00
0000638E00
0000638E00
0000000000
0000000000
0000000000
0000638E00
0000638E00
0000638E00
0000000000
0000000000
0000038E70
0000038E70
0000038E70
0000000000
0000000000
0000000000
0000038E70
0000038E70
0000038E70
ENDCHAR
STARTCHAR 005D
ENCODING 93
SWIDTH 656 0
DWIDTH 42 0
BBX 19 64 0 -13
BITMAP
E31C60
E31C60
000000
000000
000000
E31C60
E31C60
E31C60
000000
000000
000000
031C60
031C60
031C60
000000
000000
031C60
031C60
031C60
000000
000000
000000
031C60
031C60
031C60
000000
000000
000000
031C60
031C60
000000
000000
000000
031C60
031C60
031C60
000000
000000
000000
031C60
031C60
000000
000000
000000
031C60
031C60
031C60
000000
000000
000000
031C60
031C60
031C60
000000
000000
E31C60
E31C60
E31C60
000000
000000
000000
E31C60
E31C60
E31C60
ENDCHAR
STARTCHAR 0061
ENCODING 97
SWIDTH 656 0
DWIDTH 42 0
BBX 36 64 0 -13
BITMAP
031C638E00
031C638E00
0000000000
0000000000
0000000000
E31C638E70
E31C638E70
E31C638E70
0000000000
0000000000
0000000000
E31C038E70
E31C038E70
E31C038E70
0000000000
0000000000
E31C038E70
E31C038E70
E31C038E70
0000000000
0000000000
0000000000
E31C038E70
E31C038E70
E31C038E70
0000000000
0000000000
0000000000
E31C638E70
E31C638E70
0000000000
0000000000
0000000000
E31C638E70
E31C638E70
E31C638E70
0000000000
0000000000
0000000000
E31C038E70
E31C038E70
0000000000
0000000000
0000000000
E31C038E70
E31C038E70
E31C038E70
0000000000
0000000000
0000000000
E31C038E70
E31C038E70
E31C038E70
0000000000
0000000000
E31C038E70
E31C038E70
E31C038E70
0000000000
0000000000
0000000000
E31C038E70
E31C038E70
E31C038E70
ENDCHAR
STARTCHAR 0062
ENCODING 98
SWIDTH 656 0
DWIDTH 42 0
BBX 36 64 0 -13
BITMAP
E31C638E00
E31C638E00
0000000000
0000000000
0000000000
E31C638E70
E31C638E70
E31C638E70
0000000000
0000000000
0000000000
E31C038E70
E31C038E70
E31C038E70
0000000000
0000000000
E31C038E70
E31C038E70
E31C038E70
0000000000
0000000000
0000000000
E31C038E70
E31C038E70
E31C038E70
0000000000
0000000000
0000000000
E31C638E00
E31C638E00
0000000000
0000000000
0000000000
E31C638E00
E31C638E00
E31C638E00
0000000000
0000000000
0000000000
E31C038E70
E31C038E70
0000000000
0000000000
0000000000
E31C038E70
E31C038E70
E31C038E70
0000000000
0000000000
0000000000
E31C038E70
E31C038E70
E31C038E70
0000000000
0000000000
E31C638E70
E31C638E70
E31C638E70
0000000000
0000000000
0000000000
E31C638E00
E31C638E00
E31C638E00
ENDCHAR
STARTCHAR 0063
ENCODING 99
SWIDTH 656 0
DWIDTH 42 0
BBX 36 64 0 -13
BITMAP
031C638E00
031C638E00
0000000000
0000000000
0000000000
E31C638E70
E31C638E70
E31C638E70
0000000000
0000000000
0000000000
E31C038E70
E31C038E70
E31C038E70
0000000000
0000000000
E31C038E70
E31C038E70
E31C038E70
0000000000
0000000000
0000000000
E31C000000
E31C000000
E31C000000
0000000000
0000000000
0000000000
E31C000000
E31C000000
0000000000
0000000000
0000000000
E31C000000
E31C000000
E31C000000
0000000000
0000000000
0000000000
E31C000000
E31C000000
0000000000
0000000000
0000000000
E31C038E70
E31C038E70
E31C038E70
0000000000
0000000000
0000000000
E31C038E70
E31C038E70
E31C038E70
0000000000
0000000000
E31C638E70
E31C638E70
E31C638E70
0000000000
0000000000
0000000000
031C638E00
031C638E00
031C638E00
ENDCHAR
STARTCHAR 0064
ENCODING 100
SWIDTH 656 0
DWIDTH 42 0
BBX 36 64 0 -13
BITMAP
E31C638E00
E31C638E00
0000000000
0000000000
0000000000
E31C638E70
E31C638E70
E31C638E70
0000000000
0000000000
0000000000
E31C038E70
E31C038E70
E31C038E70
0000000000
0000000000
E31C038E70
E31C038E70
E31C038E70
0000000000
0000000000
0000000000
E31C038E70
E31C038E70
E31C038E70
0000000000
0000000000
0000000000
E31C038E70
E31C038E70
0000000000
0000000000
0000000000
E31C038E70
E31C038E70
E31C038E70
0000000000
0000000000
0000000000
E31C038E70
E31C038E70
0000000000
0000000000
0000000000
E31C038E70
E31C038E70
E31C038E70
0000000000
0000000000
0000000000
E31C038E70
E31C038E70
E31C038E70
0000000000
0000000000
E31C638E70
E31C638E70
E31C638E70
0000000000
0000000000
0000000000
E31C638E00
E31C638E00
E31C638E00
ENDCHAR
STARTCHAR 0065
ENCODING 101
SWIDTH 656 0
DWIDTH 42 0
BBX 36 64 0 -13
BITMAP
E31C638E70
E31C638E70
0000000000
0000000000
0000000000
E31C638E70
E31C638E70
E31C638E70
0000000000
0000000000
0000000000
E31C000000
E31C000000
E31C000000
0000000000
0000000000
E31C000000
E31C000000
E31C000000
0000000000
0000000000
0000000000
E31C000000
E31C000000
E31C000000
0000000000
0000000000
0000000000
E31C638E00
E31C638E00
0000000000
0000000000
0000000000
E31C638E00
E31C638E00
E31C638E00
0000000000
0000000000
0000000000
E31C000000
E31C000000
0000000000
0000000000
0000000000
E31C000000
E31C000000
E31C000000
0000000000
0000000000
0000000000
E31C000000
E31C000000
E31C000000
0000000000
0000000000
E31C638E70
E31C638E70
E31C638E70
0000000000
0000000000
0000000000
E31C638E70
E31C638E70
E31C638E70
ENDCHAR
STARTCHAR 0066
ENCODING 102
SWIDTH 656 0
DWIDTH 42 0
BBX 36 64 0 -13
BITMAP
E31C638E70
E31C638E70
0000000000
0000000000
0000000000
E31C638E70
E31C638E70
E31C638E70
0000000000
0000000000
0000000000
E31C000000
E31C000000
E31C000000
0000000000
0000000000
E31C000000
E31C000000
E31C000000
0000000000
0000000000
0000000000
E31C000000
E31C000000
E31C000000
0000000000
0000000000
0000000000
E31C638E00
E31C638E00
0000000000
0000000000
0000000000
E31C638E00
E31C638E00
E31C638E00
0000000000
0000000000
0000000000
E31C000000
E31C000000
0000000000
0000000000
0000000000
E31C000000
E31C000000
E31C000000
0000000000
0000000000
0000000000
E31C000000
E31C000000
E31C000000
0000000000
0000000000
E31C000000
E31C000000
E31C000000
0000000000
0000000000
0000000000
E31C000000
E31C000000
E31C000000
ENDCHAR
STARTCHAR 0067
ENCODING 103
SWIDTH 656 0
DWIDTH 42 0
BBX 36 64 0 -13
BITMAP
031C638E00
031C638E00
0000000000
0000000000
0000000000
E31C638E70
E31C638E70
E31C638E70
0000000000
0000000000
0000000000
E31C038E70
E31C038E70
E31C038E70
0000000000
0000000000
E31C038E70
E31C038E70
E31C038E70
0000000000
0000000000
0000000000
E31C000000
E31C000000
E31C000000
0000000000
0000000000
0000000000
E31C038E70
E31C038E70
0000000000
0000000000
0000000000
E31C038E70
E31C038E70
E31C038E70
0000000000
0000000000
0000000000
E31C038E70
E31C038E70
0000000000
0000000000
0000000000
E31C038E70
E31C038E70
E31C038E70
0000000000
0000000000
0000000000
E31C038E70
E31C038E70
E31C038E70
0000000000
0000000000
E31C638E70
E31C638E70
E31C638E70
0000000000
0000000000
0000000000
031C638E70
031C638E70
031C638E70
ENDCHAR
STARTCHAR 0068
ENCODING 104
SWIDTH 656 0
DWIDTH 42 0
BBX 36 64 0 -13
BITMAP
E31C038E70
E31C038E70
0000000000
0000000000
0000000000
E31C038E70
E31C038E70
E31C038E70
0000000000
0000000000
0000000000
E31C038E70
E31C038E70
E31C038E70
0000000000
0000000000
E31C038E70
E31C038E70
E31C038E70
0000000000
0000000000
0000000000
E31C038E70
E31C038E70
E31C038E70
0000000000
0000000000
0000000000
E31C638E70
E31C638E70
0000000000
0000000000
0000000000
E31C638E70
E31C638E70
E31C638E70
0000000000
0000000000
0000000000
E31C038E70
E31C038E70
0000000000
0000000000
0000000000
E31C038E70
E31C038E70
E31C038E70
0000000000
0000000000
0000000000
E31C038E70
E31C038E70
E31C038E70
0000000000
0000000000
E31C038E70
E31C038E70
E31C038E70
0000000000
0000000000
0000000000
E31C038E70
E31C038E70
E31C038E70
ENDCHAR
STARTCHAR 0069
ENCODING 105
SWIDTH 328 0
DWIDTH 21 0
BBX 14 64 0 -13
BITMAP
E31C
E31C
0000
0000
0000
E31C
E31C
E31C
0000
0000
0000
E31C
E31C
E31C
0000
0000
E31C
E31C
E31C
0000
0000
0000
E31C
E31C
E31C
0000
0000
0000
E31C
E31C
0000
0000
0000
E31C
E31C
E31C
0000
0000
0000
E31C
E31C
0000
0000
0000
E31C
E31C
E31C
0000
0000
0000
E31C
E31C
E31C
0000
0000
E31C
E31C
E31C
0000
0000
0000
E31C
E31C
E31C
ENDCHAR
STARTCHAR 006A
ENCODING 106
SWIDTH 656 0
DWIDTH 42 0
BBX 36 64 0 -13
BITMAP
0000038E70
0000038E70
0000000000
0000000000
0000000000
0000038E70
0000038E70
0000038E70
0000000000
0000000000
0000000000
0000038E70
0000038E70
0000038E70
0000000000
0000000000
0000038E70
0000038E70
0000038E70
0000000000
0000000000
0000000000
0000038E70
0000038E70
0000038E70
0000000000
0000000000
0000000000
0000038E70
0000038E70
0000000000
0000000000
0000000000
0000038E70
0000038E70
0000038E70
0000000000
0000000000
0000000000
0000038E70
0000038E70
0000000000
0000000000
0000000000
E31C038E70
E31C038E70
E31C038E70
0000000000
0000000000
0000000000
E31C038E70
E31C038E70
E31C038E70
0000000000
0000000000
E31C638E70
E31C638E70
E31C638E70
0000000000
0000000000
0000000000
031C638E00
031C638E00
031C638E00
ENDCHAR
STARTCHAR 006B
ENCODING 107
SWIDTH 656 0
DWIDTH 42 0
BBX 36 64 0 -13
BITMAP
E31C038E70
E31C038E70
0000000000
0000000000
0000000000
E31C038E70
E31C038E70
E31C038E70
0000000000
0000000000
0000000000
E31C038E70
E31C038E70
E31C038E70
0000000000
0000000000
E31C038E70
E31C038E70
E31C038E70
0000000000
0000000000
0000000000
E31C038E70
E31C038E70
E31C038E70
0000000000
0000000000
0000000000
E31C638E00
E31C638E00
0000000000
0000000000
0000000000
E31C638E00
E31C638E00
E31C638E00
0000000000
0000000000
0000000000
E31C038E70
E31C038E70
0000000000
0000000000
0000000000
E31C038E70
E31C038E70
E31C038E70
0000000000
0000000000
0000000000
E31C038E70
E31C038E70
E31C038E70
0000000000
0000000000
E31C038E70
E31C038E70
E31C038E70
0000000000
0000000000
0000000000
E31C038E70
E31C038E70
E31C038E70
ENDCHAR
STARTCHAR 006C
ENCODING 108
SWIDTH 656 0
DWIDTH 42 0
BBX 36 64 0 -13
BITMAP
E31C000000
E31C000000
0000000000
0000000000
0000000000
E31C000000
E31C000000
E31C000000
0000000000
0000000000
0000000000
E31C000000
E31C000000
E31C000000
0000000000
0000000000
E31C000000
E31C000000
E31C000000
0000000000
0000000000
0000000000
E31C000000
E31C000000
E31C000000
0000000000
0000000000
0000000000
E31C000000
E31C000000
0000000000
0000000000
0000000000
E31C000000
E31C000000
E31C000000
0000000000
0000000000
0000000000
E31C000000
E31C000000
0000000000
0000000000
0000000000
E31C000000
E31C000000
E31C000000
0000000000
0000000000
0000000000
E31C000000
E31C000000
E31C000000
0000000000
0000000000
E31C638E70
E31C638E70
E31C638E70
0000000000
0000000000
0000000000
E31C638E70
E31C638E70
E31C638E70
ENDCHAR
STARTCHAR 006D
ENCODING 109
SWIDTH 1015 0
DWIDTH 65 0
BBX 58 64 0 -13
BITMAP
031C638071C63800
031C638071C63800
0000000000000000
0000000000000000
0000000000000000
E31C638E71C638C0
E31C638E71C638C0
E31C638E71C638C0
0000000000000000
0000000000000000
0000000000000000
E31C038E700638C0
E31C038E700638C0
E31C038E700638C0
0000000000000000
0000000000000000
E31C038E700638C0
E31C038E700638C0
E31C038E700638C0
0000000000000000
0000000000000000
0000000000000000
E31C038E700638C0
E31C038E700638C0
E31C038E700638C0
0000000000000000
0000000000000000
0000000000000000
E31C038E700638C0
E31C038E700638C0
0000000000000000
0000000000000000
0000000000000000
E31C038E700638C0
E31C038E700638C0
E31C038E700638C0
0000000000000000
0000000000000000
0000000000000000
E31C038E700638C0
E31C038E700638C0
0000000000000000
0000000000000000
0000000000000000
E31C038E700638C0
E31C038E700638C0
E31C038E700638C0
0000000000000000
0000000000000000
0000000000000000
E31C038E700638C0
E31C038E700638C0
E31C038E700638C0
0000000000000000
0000000000000000
E31C038E700638C0
E31C038E700638C0
E31C038E700638C0
0000000000000000
0000000000000000
0000000000000000
E31C038E700638C0
E31C038E700638C0
E31C038E700638C0
ENDCHAR
STARTCHAR 006E
ENCODING 110
SWIDTH 656 0
DWIDTH 42 0
BBX 36 64 0 -13
BITMAP
E31C638E00
E31C638E00
0000000000
0000000000
0000000000
E31C638E70
E31C638E70
E31C638E70
0000000000
0000000000
0000000000
E31C038E70
E31C038E70
E31C038E70
0000000000
0000000000
E31C038E70
E31C038E70
E31C038E70
0000000000
0000000000
0000000000
E31C038E70
E31C038E70
E31C038E70
0000000000
0000000000
0000000000
E31C038E70
E31C038E70
0000000000
0000000000
0000000000
E31C038E70
E31C038E70
E31C038E70
0000000000
0000000000
0000000000
E31C038E70
E31C038E70
0000000000
0000000000
0000000000
E31C038E70
E31C038E70
E31C038E70
0000000000
0000000000
0000000000
E31C038E70
E31C038E70
E31C038E70
0000000000
0000000000
E31C038E70
E31C038E70
E31C038E70
0000000000
0000000000
0000000000
E31C038E70
E31C038E70
E31C038E70
ENDCHAR
STARTCHAR 006F
ENCODING 111
SWIDTH 656 0
DWIDTH 42 0
BBX 36 64 0 -13
BITMAP
031C638E00
031C638E00
0000000000
0000000000
0000000000
E31C638E70
E31C638E70
E31C638E70
0000000000
0000000000
0000000000
E31C038E70
E31C038E70
E31C038E70
0000000000
0000000000
E31C038E70
E31C038E70
E31C038E70
0000000000
0000000000
0000000000
E31C038E70
E31C038E70
E31C038E70
0000000000
0000000000
0000000000
E31C038E70
E31C038E70
0000000000
0000000000
0000000000
E31C038E70
E31C038E70
E31C038E70
0000000000
0000000000
0000000000
E31C038E70
E31C038E70
0000000000
0000000000
0000000000
E31C038E70
E31C038E70
E31C038E70
0000000000
0000000000
0000000000
E31C038E70
E31C038E70
E31C038E70
0000000000
0000000000
E31C638E70
E31C638E70
E31C638E70
0000000000
0000000000
0000000000
031C638E00
031C638E00
031C638E00
ENDCHAR
STARTCHAR 0070
ENCODING 112
SWIDTH 656 0
DWIDTH 42 0
BBX 36 64 0 -13
BITMAP
E31C638E00
E31C638E00
0000000000
0000000000
0000000000
E31C638E70
E31C638E70
E31C638E70
0000000000
0000000000
0000000000
E31C038E70
E31C038E70
E31C038E70
0000000000
0000000000
E31C038E70
E31C038E70
E31C038E70
0000000000
0000000000
0000000000
E31C038E70
E31C038E70
E31C038E70
0000000000
0000000000
0000000000
E31C638E70
E31C638E70
0000000000
0000000000
0000000000
E31C638E00
E31C638E00
E31C638E00
0000000000
0000000000
0000000000
E31C000000
E31C000000
0000000000
0000000000
0000000000
E31C000000
E31C000000
E31C000000
0000000000
0000000000
0000000000
E31C000000
E31C000000
E31C000000
0000000000
0000000000
E31C000000
E31C000000
E31C000000
0000000000
0000000000
0000000000
E31C000000
E31C000000
E31C000000
ENDCHAR
STARTCHAR 0071
ENCODING 113
SWIDTH 750 0
DWIDTH 48 0
BBX 42 64 0 -13
BITMAP
031C638E0000
031C638E0000
000000000000
000000000000
000000000000
E31C638E7000
E31C638E7000
E31C638E7000
000000000000
000000000000
000000000000
E31C038E7000
E31C038E7000
E31C038E7000
000000000000
000000000000
E31C038E7000
E31C038E7000
E31C038E7000
000000000000
000000000000
000000000000
E31C038E7000
E31C038E7000
E31C038E7000
000000000000
000000000000
000000000000
E31C038E7000
E31C038E7000
000000000000
000000000000
000000000000
E31C038E7000
E31C038E7000
E31C038E7000
000000000000
000000000000
000000000000
E31C038E7000
E31C038E7000
000000000000
000000000000
000000000000
E31C038E7000
E31C038E7000
E31C038E7000
000000000000
000000000000
000000000000
E31C038E7000
E31C038E7000
E31C038E7000
000000000000
000000000000
E31C638E71C0
E31C638E71C0
E31C638E71C0
000000000000
000000000000
000000000000
031C638E71C0
031C638E71C0
031C638E71C0
ENDCHAR
STARTCHAR 0072
ENCODING 114
SWIDTH 656 0
DWIDTH 42 0
BBX 36 64 0 -13
BITMAP
E31C638E00
E31C638E00
0000000000
0000000000
0000000000
E31C638E70
E31C638E70
E31C638E70
0000000000
0000000000
0000000000
E31C038E70
E31C038E70
E31C038E70
0000000000
0000000000
E31C038E70
E31C038E70
E31C038E70
0000000000
0000000000
0000000000
E31C038E70
E31C038E70
E31C038E70
0000000000
0000000000
0000000000
E31C638E00
E31C638E00
0000000000
0000000000
0000000000
E31C638E00
E31C638E00
E31C638E00
0000000000
0000000000
0000000000
E31C038E70
E31C038E70
0000000000
0000000000
0000000000
E31C038E70
E31C038E70
E31C038E70
0000000000
0000000000
0000000000
E31C038E70
E31C038E70
E31C038E70
0000000000
0000000000
E31C038E70
E31C038E70
E31C038E70
0000000000
0000000000
0000000000
E31C038E70
E31C038E70
E31C038E70
ENDCHAR
STARTCHAR 0073
ENCODING 115
SWIDTH 656 0
DWIDTH 42 0
BBX 36 64 0 -13
BITMAP
031C638E00
031C638E00
0000000000
0000000000
0000000000
E31C638E70
E31C638E70
E31C638E70
0000000000
0000000000
0000000000
E31C038E70
E31C038E70
E31C038E70
0000000000
0000000000
E31C038E70
E31C038E70
E31C038E70
0000000000
0000000000
0000000000
E31C000000
E31C000000
E31C000000
0000000000
0000000000
0000000000
031C638E00
031C638E00
0000000000
0000000000
0000000000
031C638E00
031C638E00
031C638E00
0000000000
0000000000
0000000000
0000038E70
0000038E70
0000000000
0000000000
0000000000
E31C038E70
E31C038E70
E31C038E70
0000000000
0000000000
0000000000
E31C038E70
E31C038E70
E31C038E70
0000000000
0000000000
E31C638E70
E31C638E70
E31C638E70
0000000000
0000000000
0000000000
031C638E00
031C638E00
031C638E00
ENDCHAR
STARTCHAR 0074
ENCODING 116
SWIDTH 656 0
DWIDTH 42 0
BBX 36 64 0 -13
BITMAP
E31C638E70
E31C638E70
0000000000
0000000000
0000000000
E31C638E70
E31C638E70
E31C638E70
0000000000
0000000000
0000000000
001C638000
001C638000
001C638000
0000000000
0000000000
001C638000
001C638000
001C638000
0000000000
0000000000
0000000000
001C638000
001C638000
001C638000
0000000000
0000000000
0000000000
001C638000
001C638000
0000000000
0000000000
0000000000
001C638000
001C638000
001C638000
0000000000
0000000000
0000000000
001C638000
001C638000
0000000000
0000000000
0000000000
001C638000
001C638000
001C638000
0000000000
0000000000
0000000000
001C638000
001C638000
001C638000
0000000000
0000000000
001C638000
001C638000
001C638000
0000000000
0000000000
0000000000
001C638000
001C638000
001C638000
ENDCHAR
STARTCHAR 0075
ENCODING 117
SWIDTH 656 0
DWIDTH 42 0
BBX 36 64 0 -13
BITMAP
E31C038E70
E31C038E70
0000000000
0000000000
0000000000
E31C038E70
E31C038E70
E31C038E70
0000000000
0000000000
0000000000
E31C038E70
E31C038E70
E31C038E70
0000000000
0000000000
E31C038E70
E31C038E70
E31C038E70
0000000000
0000000000
0000000000
E31C038E70
E31C038E70
E31C038E70
0000000000
0000000000
0000000000
E31C038E70
E31C038E70
0000000000
0000000000
0000000000
E31C038E70
E31C038E70
E31C038E70
0000000000
0000000000
0000000000
E31C038E70
E31C038E70
0000000000
0000000000
0000000000
E31C038E70
E31C038E70
E31C038E70
0000000000
0000000000
0000000000
E31C038E70
E31C038E70
E31C038E70
0000000000
0000000000
E31C638E70
E31C638E70
E31C638E70
0000000000
0000000000
0000000000
031C638E00
031C638E00
031C638E00
ENDCHAR
STARTCHAR 0076
ENCODING 118
SWIDTH 656 0
DWIDTH 42 0
BBX 36 64 0 -13
BITMAP
E31C038E70
E31C038E70
0000000000
0000000000
0000000000
E31C038E70
E31C038E70
E31C038E70
0000000000
0000000000
0000000000
E31C038E70
E31C038E70
E31C038E70
0000000000
0000000000
E31C038E70
E31C038E70
E31C038E70
0000000000
0000000000
0000000000
E31C038E70
E31C038E70
E31C038E70
0000000000
0000000000
0000000000
E31C038E70
E31C038E70
0000000000
0000000000
0000000000
E31C038E70
E31C038E70
E31C038E70
0000000000
0000000000
0000000000
E31C038E70
E31C038E70
0000000000
0000000000
0000000000
E31C038E70
E31C038E70
E31C038E70
0000000000
0000000000
0000000000
E31C038E70
E31C038E70
E31C038E70
0000000000
0000000000
031C638E00
031C638E00
031C638E00
0000000000
0000000000
0000000000
001C638000
001C638000
001C638000
ENDCHAR
STARTCHAR 0077
ENCODING 119
SWIDTH 1015 0
DWIDTH 65 0
BBX 58 64 0 -13
BITMAP
E31C038E700638C0
E31C038E700638C0
0000000000000000
0000000000000000
0000000000000000
E31C038E700638C0
E31C038E700638C0
E31C038E700638C0
0000000000000000
0000000000000000
0000000000000000
E31C038E700638C0
E31C038E700638C0
E31C038E700638C0
0000000000000000
0000000000000000
E31C038E700638C0
E31C038E700638C0
E31C038E700638C0
0000000000000000
0000000000000000
0000000000000000
E31C038E700638C0
E31C038E700638C0
E31C038E700638C0
0000000000000000
0000000000000000
0000000000000000
E31C038E700638C0
E31C038E700638C0
0000000000000000
0000000000000000
0000000000000000
E31C038E700638C0
E31C038E700638C0
E31C038E700638C0
0000000000000000
0000000000000000
0000000000000000
E31C038E700638C0
E31C038E700638C0
0000000000000000
0000000000000000
0000000000000000
E31C038E700638C0
E31C038E700638C0
E31C038E700638C0
0000000000000000
0000000000000000
0000000000000000
E31C038E700638C0
E31C038E700638C0
E31C038E700638C0
0000000000000000
0000000000000000
E31C638E71C638C0
E31C638E71C638C0
E31C638E71C638C0
0000000000000000
0000000000000000
0000000000000000
031C638071C63800
031C638071C63800
031C638071C63800
ENDCHAR
STARTCHAR 0078
ENCODING 120
SWIDTH 656 0
DWIDTH 42 0
BBX 36 64 0 -13
BITMAP
E31C038E70
E31C038E70
0000000000
0000000000
0000000000
E31C038E70
E31C038E70
E31C038E70
0000000000
0000000000
0000000000
E31C038E70
E31C038E70
E31C038E70
0000000000
0000000000
E31C038E70
E31C038E70
E31C038E70
0000000000
0000000000
0000000000
E31C038E70
E31C038E70
E31C038E70
0000000000
0000000000
0000000000
031C638E00
031C638E00
0000000000
0000000000
0000000000
031C638E00
031C638E00
031C638E00
0000000000
0000000000
0000000000
E31C038E70
E31C038E70
0000000000
0000000000
0000000000
E31C038E70
E31C038E70
E31C038E70
0000000000
0000000000
0000000000
E31C038E70
E31C038E70
E31C038E70
0000000000
0000000000
E31C038E70
E31C038E70
E31C038E70
0000000000
0000000000
0000000000
E31C038E70
E31C038E70
E31C038E70
ENDCHAR
STARTCHAR 0079
ENCODING 121
SWIDTH 656 0
DWIDTH 42 0
BBX 36 64 0 -13
BITMAP
E31C038E70
E31C038E70
0000000000
0000000000
0000000000
E31C038E70
E31C038E70
E31C038E70
0000000000
0000000000
0000000000
E31C038E70
E31C038E70
E31C038E70
0000000000
0000000000
E31C038E70
E31C038E70
E31C038E70
0000000000
0000000000
0000000000
E31C038E70
E31C038E70
E31C038E70
0000000000
0000000000
0000000000
E31C638E70
E31C638E70
0000000000
0000000000
0000000000
031C638E00
031C638E00
031C638E00
0000000000
0000000000
0000000000
001C638000
001C638000
0000000000
0000000000
0000000000
001C638000
001C638000
001C638000
0000000000
0000000000
0000000000
001C638000
001C638000
001C638000
0000000000
0000000000
001C638000
001C638000
001C638000
0000000000
0000000000
0000000000
001C638000
001C638000
001C638000
ENDCHAR
STARTCHAR 007A
ENCODING 122
SWIDTH 656 0
DWIDTH 42 0
BBX 36 64 0 -13
BITMAP
E31C638E70
E31C638E70
0000000000
0000000000
0000000000
E31C638E70
E31C638E70
E31C638E70
0000000000
0000000000
0000000000
E31C038E70
E31C038E70
E31C038E70
0000000000
0000000000
0000038E70
0000038E70
0000038E70
0000000000
0000000000
0000000000
0000638E00
0000638E00
0000638E00
0000000000
0000000000
0000000000
001C638000
001C638000
0000000000
0000000000
0000000000
031C600000
031C600000
031C600000
0000000000
0000000000
0000000000
E31C000000
E31C000000
0000000000
0000000000
0000000000
E31C000000
E31C000000
E31C000000
0000000000
0000000000
0000000000
E31C038E70
E31C038E70
E31C038E70
0000000000
0000000000
E31C638E70
E31C638E70
E31C638E70
0000000000
0000000000
0000000000
E31C638E70
E31C638E70
E31C638E70
ENDCHAR
STARTCHAR 00C5
ENCODING 197
SWIDTH 656 0
DWIDTH 42 0
BBX 36 78 0 -13
BITMAP
001C638000
001C638000
001C638000
0000000000
0000000000
0000000000
001C638000
001C638000
001C638000
0000000000
0000000000
0000000000
0000000000
0000000000
031C638E00
031C638E00
0000000000
0000000000
0000000000
E31C638E70
E31C638E70
E31C638E70
0000000000
0000000000
0000000000
E31C038E70
E31C038E70
E31C038E70
0000000000
0000000000
E31C038E70
E31C038E70
E31C038E70
0000000000
0000000000
0000000000
E31C038E70
E31C038E70
E31C038E70
0000000000
0000000000
0000000000
E31C638E70
E31C638E70
0000000000
0000000000
0000000000
E31C638E70
E31C638E70
E31C638E70
0000000000
0000000000
0000000000
E31C038E70
E31C038E70
0000000000
0000000000
0000000000
E31C038E70
E31C038E70
E31C038E70
0000000000
0000000000
0000000000
E31C038E70
E31C038E70
E31C038E70
0000000000
0000000000
E31C038E70
E31C038E70
E31C038E70
0000000000
0000000000
0000000000
E31C038E70
E31C038E70
E31C038E70
ENDCHAR
STARTCHAR 00C6
ENCODING 198
SWIDTH 1015 0
DWIDTH 65 0
BBX 58 64 0 -13
BITMAP
031C638E71C638C0
031C638E71C638C0
0000000000000000
0000000000000000
0000000000000000
E31C638E71C638C0
E31C638E71C638C0
E31C638E71C638C0
0000000000000000
0000000000000000
0000000000000000
E31C038E70000000
E31C038E70000000
E31C038E70000000
0000000000000000
0000000000000000
E31C038E70000000
E31C038E70000000
E31C038E70000000
0000000000000000
0000000000000000
0000000000000000
E31C038E70000000
E31C038E70000000
E31C038E70000000
0000000000000000
0000000000000000
0000000000000000
E31C638E71C63800
E31C638E71C63800
0000000000000000
0000000000000000
0000000000000000
E31C638E71C63800
E31C638E71C63800
E31C638E71C63800
0000000000000000
0000000000000000
0000000000000000
E31C038E70000000
E31C038E70000000
0000000000000000
0000000000000000
0000000000000000
E31C038E70000000
E31C038E70000000
E31C038E70000000
0000000000000000
0000000000000000
0000000000000000
E31C038E70000000
E31C038E70000000
E31C038E70000000
0000000000000000
0000000000000000
E31C038E71C638C0
E31C038E71C638C0
E31C038E71C638C0
0000000000000000
0000000000000000
0000000000000000
E31C038E71C638C0
E31C038E71C638C0
E31C038E71C638C0
ENDCHAR
STARTCHAR 00D8
ENCODING 216
SWIDTH 656 0
DWIDTH 42 0
BBX 36 64 0 -13
BITMAP
031C600E70
031C600E70
0000000000
0000000000
0000000000
E31C638E70
E31C638E70
E31C638E70
0000000000
0000000000
0000000000
E31C038E00
E31C038E00
E31C038E00
0000000000
0000000000
E31C038E70
E31C038E70
E31C038E70
0000000000
0000000000
0000000000
E31C038E70
E31C038E70
E31C038E70
0000000000
0000000000
0000000000
E31C638E70
E31C638E70
0000000000
0000000000
0000000000
E31C638E70
E31C638E70
E31C638E70
0000000000
0000000000
0000000000
E31C638E70
E31C638E70
0000000000
0000000000
0000000000
E31C038E70
E31C038E70
E31C038E70
0000000000
0000000000
0000000000
031C038E70
031C038E70
031C038E70
0000000000
0000000000
E31C638E70
E31C638E70
E31C638E70
0000000000
0000000000
0000000000
E300638E00
E300638E00
E300638E00
ENDCHAR
STARTCHAR 00E5
ENCODING 229
SWIDTH 656 0
DWIDTH 42 0
BBX 36 78 0 -13
BITMAP
001C638000
001C638000
001C638000
0000000000
0000000000
0000000000
001C638000
001C638000
001C638000
0000000000
0000000000
0000000000
0000000000
0000000000
031C638E00
031C638E00
0000000000
0000000000
0000000000
E31C638E70
E31C638E70
E31C638E70
0000000000
0000000000
0000000000
E31C038E70
E31C038E70
E31C038E70
0000000000
0000000000
E31C038E70
E31C038E70
E31C038E70
0000000000
0000000000
0000000000
E31C038E70
E31C038E70
E31C038E70
0000000000
0000000000
0000000000
E31C638E70
E31C638E70
0000000000
0000000000
0000000000
E31C638E70
E31C638E70
E31C638E70
0000000000
0000000000
0000000000
E31C038E70
E31C038E70
0000000000
0000000000
0000000000
E31C038E70
E31C038E70
E31C038E70
0000000000
0000000000
0000000000
E31C038E70
E31C038E70
E31C038E70
0000000000
0000000000
E31C038E70
E31C038E70
E31C038E70
0000000000
0000000000
0000000000
E31C038E70
E31C038E70
E31C038E70
ENDCHAR
STARTCHAR 00E6
ENCODING 230
SWIDTH 1015 0
DWIDTH 65 0
BBX 58 64 0 -13
BITMAP
031C638E71C638C0
031C638E71C638C0
0000000000000000
0000000000000000
0000000000000000
E31C638E71C638C0
E31C638E71C638C0
E31C638E71C638C0
0000000000000000
0000000000000000
0000000000000000
E31C038E70000000
E31C038E70000000
E31C038E70000000
0000000000000000
0000000000000000
E31C038E70000000
E31C038E70000000
E31C038E70000000
0000000000000000
0000000000000000
0000000000000000
E31C038E70000000
E31C038E70000000
E31C038E70000000
0000000000000000
0000000000000000
0000000000000000
E31C638E71C63800
E31C638E71C63800
0000000000000000
0000000000000000
0000000000000000
E31C638E71C63800
E31C638E71C63800
E31C638E71C63800
0000000000000000
0000000000000000
0000000000000000
E31C038E70000000
E31C038E70000000
0000000000000000
0000000000000000
0000000000000000
E31C038E70000000
E31C038E70000000
E31C038E70000000
0000000000000000
0000000000000000
0000000000000000
E31C038E70000000
E31C038E70000000
E31C038E70000000
0000000000000000
0000000000000000
E31C038E71C638C0
E31C038E71C638C0
E31C038E71C638C0
0000000000000000
0000000000000000
0000000000000000
E31C038E71C638C0
E31C038E71C638C0
E31C038E71C638C0
ENDCHAR
STARTCHAR 00F8
ENCODING 248
SWIDTH 656 0
DWIDTH 42 0
BBX 36 64 0 -13
BITMAP
031C600E70
031C600E70
0000000000
0000000000
0000000000
E31C638E70
E31C638E70
E31C638E70
0000000000
0000000000
0000000000
E31C038E00
E31C038E00
E31C038E00
0000000000
0000000000
E31C038E70
E31C038E70
E31C038E70
0000000000
0000000000
0000000000
E31C038E70
E31C038E70
E31C038E70
0000000000
0000000000
0000000000
E31C638E70
E31C638E70
0000000000
0000000000
0000000000
E31C638E70
E31C638E70
E31C638E70
0000000000
0000000000
0000000000
E31C638E70
E31C638E70
0000000000
0000000000
0000000000
E31C038E70
E31C038E70
E31C038E70
0000000000
0000000000
0000000000
031C038E70
031C038E70
031C038E70
0000000000
0000000000
E31C638E70
E31C638E70
E31C638E70
0000000000
0000000000
0000000000
E300638E00
E300638E00
E300638E00
ENDCHAR
STARTCHAR 2010
ENCODING 8208
SWIDTH 656 0
DWIDTH 42 0
BBX 36 8 0 15
BITMAP
E31C638E70
E31C638E70
0000000000
0000000000
0000000000
E31C638E70
E31C638E70
E31C638E70
ENDCHAR
ENDFONT
